<svg width="18" height="18" viewBox="0 0 18 18" fill="none" xmlns="http://www.w3.org/2000/svg">
<g id="electrical-plug 1">
<path id="Vector" fill-rule="evenodd" clip-rule="evenodd" d="M14.25 13.125C14.25 12.5037 13.7463 12 13.125 12H6C3.92894 12 2.25 10.3211 2.25 8.25C2.25 6.17894 3.92894 4.5 6 4.5H8.25V6H6C4.75736 6 3.75 7.00736 3.75 8.25C3.75 9.49267 4.75736 10.5 6 10.5H13.125C14.5747 10.5 15.75 11.6753 15.75 13.125C15.75 14.5747 14.5747 15.75 13.125 15.75H3C2.58579 15.75 2.25 15.4142 2.25 15C2.25 14.5858 2.58579 14.25 3 14.25H13.125C13.7463 14.25 14.25 13.7463 14.25 13.125Z" fill="#0E0C15"/>
<path id="Vector_2" d="M15 3H12V4.5H15C15.4142 4.5 15.75 4.16421 15.75 3.75C15.75 3.33579 15.4142 3 15 3Z" fill="#0E0C15"/>
<path id="Vector_3" d="M15 6H12V7.5H15C15.4142 7.5 15.75 7.16421 15.75 6.75C15.75 6.33579 15.4142 6 15 6Z" fill="#0E0C15"/>
<path id="Vector_4" d="M6.75 5.25C6.75 3.59314 8.09317 2.25 9.75 2.25H12.75C13.1642 2.25 13.5 2.58579 13.5 3V7.5C13.5 7.91423 13.1642 8.25 12.75 8.25H9.75C8.09317 8.25 6.75 6.90686 6.75 5.25Z" fill="#0E0C15"/>
</g>
</svg>
