<svg width="19" height="19" viewBox="0 0 19 19" fill="none" xmlns="http://www.w3.org/2000/svg">
<g id="electrical-plug 1">
<path id="Vector" fill-rule="evenodd" clip-rule="evenodd" d="M14.6412 13.6466C14.6412 13.0253 14.1375 12.5216 13.5162 12.5216H6.39124C4.32017 12.5216 2.64124 10.8427 2.64124 8.77161C2.64124 6.70054 4.32017 5.02161 6.39124 5.02161H8.64124V6.52161H6.39124C5.1486 6.52161 4.14124 7.52897 4.14124 8.77161C4.14124 10.0143 5.1486 11.0216 6.39124 11.0216H13.5162C14.966 11.0216 16.1412 12.1969 16.1412 13.6466C16.1412 15.0964 14.966 16.2716 13.5162 16.2716H3.39124C2.97703 16.2716 2.64124 15.9358 2.64124 15.5216C2.64124 15.1074 2.97703 14.7716 3.39124 14.7716H13.5162C14.1375 14.7716 14.6412 14.2679 14.6412 13.6466Z" fill="#0088EB"/>
<path id="Vector_2" d="M15.3912 3.52161H12.3912V5.02161H15.3912C15.8055 5.02161 16.1412 4.68582 16.1412 4.27161C16.1412 3.8574 15.8055 3.52161 15.3912 3.52161Z" fill="#0088EB"/>
<path id="Vector_3" d="M15.3912 6.52161H12.3912V8.02161H15.3912C15.8055 8.02161 16.1412 7.68582 16.1412 7.27161C16.1412 6.8574 15.8055 6.52161 15.3912 6.52161Z" fill="#0088EB"/>
<path id="Vector_4" d="M7.14124 5.77161C7.14124 4.11475 8.48441 2.77161 10.1412 2.77161H13.1412C13.5555 2.77161 13.8912 3.1074 13.8912 3.52161V8.02161C13.8912 8.43583 13.5555 8.77161 13.1412 8.77161H10.1412C8.48441 8.77161 7.14124 7.42846 7.14124 5.77161Z" fill="#0088EB"/>
</g>
</svg>
