<svg xmlns="http://www.w3.org/2000/svg" width="20" height="20" viewBox="0 0 20 20" fill="none">
<path d="M9.975 18.9583C5.04166 18.9583 1.01666 14.9416 1.01666 9.99994C1.01666 5.05827 5.04166 1.0416 9.975 1.0416C14.9083 1.0416 18.9333 5.05827 18.9333 9.99994C18.9333 14.9416 14.9167 18.9583 9.975 18.9583ZM9.975 2.2916C5.725 2.2916 2.26666 5.74994 2.26666 9.99994C2.26666 14.2499 5.725 17.7083 9.975 17.7083C14.225 17.7083 17.6833 14.2499 17.6833 9.99994C17.6833 5.74994 14.225 2.2916 9.975 2.2916Z" fill="#677585"/>
<path d="M9.99986 15.2082C8.20819 15.2082 6.52486 14.3332 5.49986 12.8582C5.29986 12.5749 5.37486 12.1832 5.65819 11.9915C5.94153 11.7915 6.33319 11.8665 6.52486 12.1499C7.31652 13.2832 8.61652 13.9665 9.99986 13.9665C11.3832 13.9665 12.6832 13.2915 13.4749 12.1499C13.6749 11.8665 14.0582 11.7999 14.3415 11.9915C14.6249 12.1915 14.6915 12.5749 14.4999 12.8582C13.4749 14.3332 11.7915 15.2082 9.99986 15.2082Z" fill="#677585"/>
<path d="M7.08337 9.1666C6.39587 9.1666 5.83337 8.6041 5.83337 7.9166C5.83337 7.2291 6.38337 6.6666 7.08337 6.6666C7.77087 6.6666 8.33337 7.2291 8.33337 7.9166C8.33337 8.6041 7.78337 9.1666 7.08337 9.1666Z" fill="#677585"/>
<path d="M12.9166 9.1666C12.2291 9.1666 11.6666 8.6041 11.6666 7.9166C11.6666 7.2291 12.2166 6.6666 12.9166 6.6666C13.6041 6.6666 14.1666 7.2291 14.1666 7.9166C14.1666 8.6041 13.6166 9.1666 12.9166 9.1666Z" fill="#677585"/>
</svg>