<svg width="21" height="22" viewBox="0 0 21 22" fill="none" xmlns="http://www.w3.org/2000/svg">
<g id="ph:instagram-logo-fill">
<path id="Vector" d="M12.7575 11.0299C12.7575 11.4624 12.6293 11.8853 12.3889 12.2449C12.1486 12.6046 11.807 12.8849 11.4074 13.0505C11.0078 13.216 10.568 13.2593 10.1438 13.1749C9.71952 13.0905 9.32982 12.8822 9.02396 12.5764C8.71809 12.2705 8.50979 11.8808 8.4254 11.4565C8.34101 11.0323 8.38432 10.5925 8.54986 10.1929C8.71539 9.79327 8.99572 9.4517 9.35538 9.21138C9.71504 8.97106 10.1379 8.84279 10.5705 8.84279C11.1499 8.84459 11.7052 9.07559 12.115 9.48536C12.5247 9.89513 12.7557 10.4504 12.7575 11.0299ZM17.4051 8.02263V14.0371C17.4051 15.0522 17.0018 16.0257 16.2841 16.7435C15.5663 17.4612 14.5928 17.8645 13.5777 17.8645H7.56322C6.54814 17.8645 5.57463 17.4612 4.85685 16.7435C4.13908 16.0257 3.73584 15.0522 3.73584 14.0371V8.02263C3.73584 7.00755 4.13908 6.03404 4.85685 5.31627C5.57463 4.59849 6.54814 4.19525 7.56322 4.19525H13.5777C14.5928 4.19525 15.5663 4.59849 16.2841 5.31627C17.0018 6.03404 17.4051 7.00755 17.4051 8.02263ZM13.8511 11.0299C13.8511 10.381 13.6587 9.74675 13.2982 9.20725C12.9377 8.66776 12.4253 8.24727 11.8259 7.99897C11.2264 7.75067 10.5668 7.6857 9.93044 7.81229C9.29406 7.93887 8.70951 8.25132 8.25071 8.71012C7.79191 9.16892 7.47946 9.75347 7.35288 10.3898C7.22629 11.0262 7.29126 11.6858 7.53956 12.2853C7.78786 12.8848 8.20835 13.3971 8.74784 13.7576C9.28734 14.1181 9.92161 14.3105 10.5705 14.3105C11.4405 14.3105 12.275 13.9648 12.8902 13.3496C13.5054 12.7344 13.8511 11.8999 13.8511 11.0299ZM14.9446 7.47587C14.9446 7.31365 14.8965 7.15509 14.8064 7.02021C14.7163 6.88534 14.5882 6.78022 14.4383 6.71814C14.2884 6.65607 14.1235 6.63983 13.9644 6.67147C13.8054 6.70312 13.6592 6.78123 13.5445 6.89593C13.4298 7.01063 13.3517 7.15677 13.3201 7.31586C13.2884 7.47496 13.3047 7.63986 13.3667 7.78973C13.4288 7.93959 13.5339 8.06768 13.6688 8.1578C13.8037 8.24792 13.9622 8.29602 14.1245 8.29602C14.342 8.29602 14.5506 8.20961 14.7044 8.0558C14.8582 7.90199 14.9446 7.69338 14.9446 7.47587Z" fill="white"/>
</g>
</svg>
