<svg width="21" height="22" viewBox="0 0 21 22" fill="none" xmlns="http://www.w3.org/2000/svg">
<g id="ri:linkedin-fill">
<path id="Vector" d="M6.73693 5.71491C6.73673 6.1177 6.57597 6.50391 6.29003 6.78859C6.00408 7.07326 5.61637 7.23307 5.21219 7.23287C4.808 7.23267 4.42045 7.07247 4.13479 6.78751C3.84913 6.50256 3.68876 6.11618 3.68897 5.71339C3.68917 5.3106 3.84992 4.92439 4.13587 4.63972C4.42181 4.35505 4.80952 4.19523 5.21371 4.19543C5.61789 4.19564 6.00545 4.35584 6.2911 4.64079C6.57676 4.92575 6.73713 5.31212 6.73693 5.71491ZM6.78265 8.35748H3.73468V17.8647H6.78265V8.35748ZM11.5984 8.35748H8.56571V17.8647H11.568V12.8757C11.568 10.0964 15.2027 9.83823 15.2027 12.8757V17.8647H18.2125V11.8429C18.2125 7.1577 12.8329 7.33235 11.568 9.63321L11.5984 8.35748Z" fill="white"/>
</g>
</svg>
