<svg width="24" height="25" viewBox="0 0 24 25" fill="none" xmlns="http://www.w3.org/2000/svg">
<path d="M20 7.25C21.5188 7.25 22.75 6.01878 22.75 4.5C22.75 2.98122 21.5188 1.75 20 1.75C18.4812 1.75 17.25 2.98122 17.25 4.5C17.25 6.01878 18.4812 7.25 20 7.25Z" fill="#00FC65"/>
<path d="M19.04 8.65C17.47 8.31 16.19 7.03 15.85 5.46C15.72 4.85 15.71 4.26 15.82 3.7C15.95 3.08 15.49 2.5 14.85 2.5H7C4.24 2.5 2 4.74 2 7.5V14.45C2 17.21 4.24 19.45 7 19.45H8.5C8.78 19.45 9.14 19.63 9.3 19.85L10.8 21.84C11.46 22.72 12.54 22.72 13.2 21.84L14.7 19.85C14.89 19.6 15.18 19.45 15.5 19.45H17.01C19.77 19.45 22 17.22 22 14.46V9.65C22 9.02 21.42 8.56 20.8 8.68C20.24 8.78 19.65 8.78 19.04 8.65ZM8 12.5C7.44 12.5 7 12.05 7 11.5C7 10.95 7.44 10.5 8 10.5C8.55 10.5 9 10.95 9 11.5C9 12.05 8.56 12.5 8 12.5ZM12 12.5C11.44 12.5 11 12.05 11 11.5C11 10.95 11.44 10.5 12 10.5C12.55 10.5 13 10.95 13 11.5C13 12.05 12.56 12.5 12 12.5ZM16 12.5C15.44 12.5 15 12.05 15 11.5C15 10.95 15.44 10.5 16 10.5C16.55 10.5 17 10.95 17 11.5C17 12.05 16.56 12.5 16 12.5Z" fill="#8699B0"/>
</svg>
