<svg width="24" height="25" viewBox="0 0 24 25" fill="none" xmlns="http://www.w3.org/2000/svg">
<path d="M21.08 9.08003V15.92C21.08 17.04 20.48 18.08 19.51 18.65L13.57 22.08C12.6 22.64 11.4 22.64 10.42 22.08L4.48003 18.65C3.51003 18.09 2.91003 17.05 2.91003 15.92V9.08003C2.91003 7.96003 3.51003 6.91999 4.48003 6.34999L10.42 2.92C11.39 2.36 12.59 2.36 13.57 2.92L19.51 6.34999C20.48 6.91999 21.08 7.95003 21.08 9.08003Z" fill="#2F3237"/>
<path d="M12 11.5C13.2869 11.5 14.33 10.4568 14.33 9.16998C14.33 7.88316 13.2869 6.84003 12 6.84003C10.7132 6.84003 9.67004 7.88316 9.67004 9.16998C9.67004 10.4568 10.7132 11.5 12 11.5Z" fill="#8699B0"/>
<path d="M9.24994 13.9601C7.91994 14.8501 7.91994 16.3001 9.24994 17.1901C10.7599 18.2001 13.2399 18.2001 14.7499 17.1901C16.0799 16.3001 16.0799 14.8501 14.7499 13.9601C13.2399 12.9601 10.7699 12.9601 9.24994 13.9601Z" fill="#8699B0"/>
</svg>
