<svg xmlns="http://www.w3.org/2000/svg" width="20" height="17" viewBox="0 0 20 17" fill="none">
<path d="M18.1021 8.49267C18.1026 8.68198 18.0466 8.86797 17.9399 9.03142C17.8332 9.19487 17.6795 9.32984 17.495 9.42236L5.0329 15.798C4.85385 15.8889 4.65166 15.9369 4.44582 15.9375C4.25601 15.9371 4.06905 15.8961 3.90062 15.8178C3.73219 15.7394 3.5872 15.6261 3.4778 15.4873C3.3684 15.3485 3.29779 15.1883 3.27187 15.0201C3.24595 14.8518 3.26548 14.6805 3.32883 14.5204L5.35872 9.21119C5.37872 9.15866 5.4166 9.11306 5.46705 9.08078C5.5175 9.04851 5.57798 9.03118 5.64 9.03123H10.9771C11.0585 9.03139 11.139 9.01657 11.2138 8.9877C11.2885 8.95883 11.3558 8.91652 11.4115 8.8634C11.4671 8.81028 11.51 8.74748 11.5374 8.67891C11.5649 8.61034 11.5762 8.53745 11.5708 8.46478C11.5574 8.32818 11.4867 8.20116 11.373 8.10918C11.2594 8.01719 11.111 7.96703 10.9578 7.96873H5.6452C5.58327 7.96883 5.52286 7.9516 5.47242 7.91945C5.42198 7.88729 5.38404 7.84184 5.36391 7.78943L3.32735 2.47693C3.24804 2.27336 3.23982 2.05303 3.30377 1.84518C3.36773 1.63733 3.50083 1.45181 3.68542 1.31324C3.87 1.17468 4.09732 1.08963 4.3372 1.06939C4.57708 1.04916 4.81817 1.09469 5.02844 1.19994L17.4972 7.56764C17.6806 7.66003 17.8333 7.79437 17.9395 7.95692C18.0458 8.11946 18.1019 8.30436 18.1021 8.49267Z" fill="white"/>
</svg>