<svg width="24" height="25" viewBox="0 0 24 25" fill="none" xmlns="http://www.w3.org/2000/svg">
<g id="vuesax/bold/setting">
<g id="vuesax/bold/setting_2">
<g id="setting">
<path id="Vector" d="M18.9401 5.92L13.7701 2.93C12.7801 2.36 11.2301 2.36 10.2401 2.93L5.02008 5.94C2.95008 7.34 2.83008 7.55 2.83008 9.78V15.21C2.83008 17.44 2.95008 17.66 5.06008 19.08L10.2301 22.07C10.7301 22.36 11.3701 22.5 12.0001 22.5C12.6301 22.5 13.2701 22.36 13.7601 22.07L18.9801 19.06C21.0501 17.66 21.1701 17.45 21.1701 15.22V9.78C21.1701 7.55 21.0501 7.34 18.9401 5.92ZM12.0001 15.75C10.2101 15.75 8.75008 14.29 8.75008 12.5C8.75008 10.71 10.2101 9.25 12.0001 9.25C13.7901 9.25 15.2501 10.71 15.2501 12.5C15.2501 14.29 13.7901 15.75 12.0001 15.75Z" fill="#8699B0"/>
</g>
</g>
</g>
</svg>
