<svg xmlns="http://www.w3.org/2000/svg" width="29" height="24" viewBox="0 0 29 24" fill="none">
<path d="M20.0084 20.9499C19.4834 20.9499 18.9668 20.7749 18.5584 20.4249L17.2418 19.2999C17.1084 19.1833 16.7751 19.0666 16.6001 19.0666H15.1418C13.9084 19.0666 12.9084 18.0666 12.9084 16.8333V15.4083C12.9084 15.2333 12.7918 14.8999 12.6834 14.7749L11.5501 13.4416C10.8668 12.6333 10.8668 11.3666 11.5501 10.5499L12.6834 9.2166C12.7918 9.0916 12.9084 8.75827 12.9084 8.58327V7.1666C12.9084 5.93327 13.9084 4.93327 15.1418 4.93327H16.5834C16.7584 4.93327 17.0834 4.80827 17.2251 4.6916L18.5418 3.5666C19.3584 2.87493 20.6334 2.87493 21.4501 3.5666L22.7668 4.6916C22.9001 4.80827 23.2418 4.92493 23.4168 4.92493H24.8334C26.0668 4.92493 27.0668 5.92493 27.0668 7.15827V8.57493C27.0668 8.74993 27.1918 9.07493 27.3084 9.2166L28.4334 10.5333C29.1334 11.3583 29.1251 12.6333 28.4334 13.4416L27.3084 14.7583C27.1918 14.8999 27.0751 15.2249 27.0751 15.3999V16.8166C27.0751 18.0499 26.0751 19.0499 24.8418 19.0499H23.4251C23.2501 19.0499 22.9251 19.1749 22.7751 19.2916L21.4584 20.4166C21.0501 20.7749 20.5251 20.9499 20.0084 20.9499ZM15.1418 6.18327C14.6001 6.18327 14.1584 6.62493 14.1584 7.1666V8.58327C14.1584 9.05827 13.9418 9.65827 13.6334 10.0249L12.5001 11.3583C12.2168 11.6999 12.2168 12.2999 12.5001 12.6333L13.6251 13.9583C13.9251 14.2999 14.1501 14.9249 14.1501 15.3999V16.8249C14.1501 17.3666 14.5918 17.8083 15.1334 17.8083H16.5834C17.0501 17.8083 17.6668 18.0333 18.0334 18.3416L19.3584 19.4749C19.7001 19.7666 20.3001 19.7666 20.6418 19.4749L21.9584 18.3499C22.3334 18.0333 22.9418 17.8166 23.4084 17.8166H24.8251C25.3668 17.8166 25.8084 17.3749 25.8084 16.8333V15.4166C25.8084 14.9499 26.0334 14.3416 26.3418 13.9666L27.4751 12.6416C27.7668 12.2999 27.7668 11.6999 27.4751 11.3583L26.3501 10.0416C26.0334 9.6666 25.8168 9.05827 25.8168 8.5916V7.1666C25.8168 6.62493 25.3751 6.18327 24.8334 6.18327H23.4168C22.9418 6.18327 22.3251 5.95827 21.9584 5.64994L20.6334 4.5166C20.2918 4.22493 19.7001 4.22493 19.3501 4.5166L18.0418 5.64994C17.6668 5.95827 17.0584 6.18327 16.5834 6.18327H15.1418Z" fill="#67707B"/>
<path d="M20 16.0583C19.5416 16.0583 19.1666 15.6833 19.1666 15.225C19.1666 14.7667 19.5333 14.3917 20 14.3917C20.4583 14.3917 20.8333 14.7667 20.8333 15.225C20.8333 15.6833 20.4666 16.0583 20 16.0583Z" fill="#67707B"/>
<path d="M20 13.4334C19.6583 13.4334 19.375 13.15 19.375 12.8084V8.77502C19.375 8.43336 19.6583 8.15002 20 8.15002C20.3417 8.15002 20.625 8.43336 20.625 8.77502V12.8C20.625 13.15 20.35 13.4334 20 13.4334Z" fill="#67707B"/>
</svg>