<svg width="21" height="22" viewBox="0 0 21 22" fill="none" xmlns="http://www.w3.org/2000/svg">
<g id="mdi:twitter">
<path id="Vector" d="M18.1645 6.55724C17.5985 6.82108 16.9884 6.99446 16.3562 7.07738C17.0031 6.67785 17.5029 6.04465 17.7382 5.28329C17.128 5.6602 16.4518 5.92403 15.7387 6.0748C15.158 5.42652 14.3421 5.04961 13.4159 5.04961C11.6884 5.04961 10.2771 6.49694 10.2771 8.28348C10.2771 8.53978 10.3065 8.78854 10.3579 9.02223C7.74106 8.88654 5.41086 7.59751 3.85984 5.64512C3.58786 6.12003 3.43349 6.67785 3.43349 7.26583C3.43349 8.38902 3.9848 9.38406 4.8375 9.94942C4.31559 9.94942 3.83044 9.79866 3.40409 9.57251V9.59513C3.40409 11.1631 4.49201 12.4747 5.93277 12.7687C5.4702 12.8985 4.98458 12.9166 4.51406 12.8215C4.71371 13.4641 5.10472 14.0264 5.63213 14.4293C6.15953 14.8322 6.79681 15.0555 7.45438 15.0678C6.33973 15.9728 4.95805 16.4619 3.5364 16.4549C3.28648 16.4549 3.03655 16.4398 2.78662 16.4096C4.18327 17.3293 5.84456 17.8645 7.62345 17.8645C13.4159 17.8645 16.5988 12.9345 16.5988 8.66039C16.5988 8.51717 16.5988 8.38148 16.5914 8.23825C17.2089 7.78596 17.7382 7.21306 18.1645 6.55724Z" fill="white"/>
</g>
</svg>
